<?xml version="1.0" standalone="no"?>
<!DOCTYPE svg PUBLIC "-//W3C//DTD SVG 20010904//EN"
 "http://www.w3.org/TR/2001/REC-SVG-20010904/DTD/svg10.dtd">
<svg version="1.0" xmlns="http://www.w3.org/2000/svg"
 width="525.000000pt" height="200.000000pt" viewBox="0 0 525.000000 200.000000"
 preserveAspectRatio="xMidYMid meet">

<g transform="translate(0.000000,200.000000) scale(0.100000,-0.100000)"
fill="#866f45" stroke="none">
<path d="M0 1000 l0 -1000 2625 0 2625 0 0 35 0 35 -340 0 -340 0 1 848 0 847
101 83 c92 75 104 82 144 82 l44 0 0 -104 0 -103 -30 -6 c-42 -9 -107 -77
-121 -129 -14 -54 -5 -120 22 -165 23 -38 84 -83 111 -83 13 0 18 -8 18 -30 0
-29 -2 -30 -117 -66 -65 -20 -119 -37 -121 -39 -2 -2 18 -65 21 -65 1 0 50 16
110 34 l107 34 0 -173 c0 -95 -4 -175 -8 -177 -8 -3 -54 -99 -198 -415 l-33
-73 31 -16 c18 -9 34 -13 35 -8 20 56 204 438 210 434 6 -4 193 -399 206 -434
1 -5 17 -1 35 8 l31 16 -33 73 c-144 316 -190 412 -198 415 -4 2 -8 82 -8 177
l0 173 108 -34 c59 -18 108 -34 109 -34 3 0 23 63 21 65 -2 2 -56 19 -121 39
-114 36 -118 38 -115 63 2 21 10 29 36 35 18 5 50 26 72 48 109 109 59 290
-92 334 -16 5 -18 19 -18 106 l0 100 35 0 c33 0 35 2 35 35 l0 35 -250 0 -250
0 0 -965 0 -965 -340 0 -340 0 1 848 0 847 101 83 c92 75 104 82 144 82 l44 0
0 -104 0 -103 -30 -6 c-42 -9 -107 -77 -121 -129 -14 -54 -5 -120 22 -165 23
-38 84 -83 111 -83 13 0 18 -8 18 -30 0 -29 -2 -30 -117 -66 -65 -20 -119 -37
-121 -39 -2 -2 18 -65 21 -65 1 0 50 16 110 34 l107 34 0 -173 c0 -95 -4 -175
-8 -177 -8 -3 -54 -99 -198 -415 l-33 -73 31 -16 c18 -9 34 -13 35 -8 13 36
204 439 208 439 4 0 195 -403 208 -439 1 -5 17 -1 35 8 l31 16 -33 73 c-144
316 -190 412 -198 415 -4 2 -8 109 -8 238 0 215 1 235 18 240 45 13 90 45 117
84 26 37 30 50 30 110 0 60 -4 73 -30 110 -27 39 -72 71 -117 84 -16 5 -18 19
-18 106 l0 100 35 0 c33 0 35 2 35 35 l0 35 -250 0 -250 0 0 -965 0 -965 -340
0 -340 0 1 848 0 847 101 83 c92 75 104 82 144 82 l44 0 0 -104 0 -103 -30 -6
c-42 -9 -107 -77 -121 -129 -14 -54 -5 -120 22 -165 23 -38 84 -83 111 -83 17
0 18 -17 18 -239 0 -132 -4 -241 -8 -243 -8 -3 -54 -99 -198 -415 l-33 -73 31
-16 c18 -9 34 -13 35 -8 13 36 204 439 208 439 4 0 195 -403 208 -439 1 -5 17
-1 35 8 l31 16 -33 73 c-144 316 -190 412 -198 415 -4 2 -8 109 -8 238 0 215
1 235 18 240 45 13 90 45 117 84 26 37 30 50 30 110 0 60 -4 73 -30 110 -27
39 -72 71 -117 84 -16 5 -18 19 -18 106 l0 100 35 0 c33 0 35 2 35 35 l0 35
-250 0 -250 0 0 -965 0 -965 -340 0 -340 0 1 848 0 847 101 83 c92 75 104 82
144 82 l44 0 0 -105 c0 -94 -2 -105 -18 -105 -27 0 -88 -45 -111 -83 -27 -45
-36 -111 -22 -165 14 -52 79 -120 121 -129 l30 -5 0 -238 c0 -131 -4 -240 -8
-242 -8 -3 -54 -99 -198 -415 l-33 -73 30 -16 c17 -8 32 -14 33 -12 2 2 52
110 112 241 60 130 115 237 121 237 10 0 13 57 13 255 0 235 1 256 18 261 45
13 90 45 117 84 26 37 30 50 30 110 0 60 -4 73 -30 110 -27 39 -72 71 -117 84
-16 5 -18 19 -18 106 l0 100 35 0 c33 0 35 2 35 35 l0 35 -250 0 -250 0 0
-965 0 -965 -340 0 -340 0 1 848 0 847 101 83 c92 75 104 82 144 82 l44 0 0
-105 c0 -94 -2 -105 -18 -105 -27 0 -88 -45 -111 -83 -27 -45 -36 -111 -22
-165 14 -52 79 -120 121 -129 l30 -5 0 -259 0 -259 35 0 35 0 0 255 c0 235 1
256 18 261 45 13 90 45 117 84 26 37 30 50 30 110 0 60 -4 73 -30 110 -27 39
-72 71 -117 84 -16 5 -18 19 -18 106 l0 100 35 0 c33 0 35 2 35 35 l0 35 -250
0 -250 0 0 -965 0 -965 -340 0 -340 0 1 848 0 847 101 83 c92 75 104 82 144
82 l44 0 0 -104 0 -103 -30 -6 c-42 -9 -107 -77 -121 -129 -23 -89 12 -182 88
-229 57 -36 154 -34 210 3 63 41 88 90 88 170 0 58 -4 72 -30 108 -27 39 -72
71 -117 84 -16 5 -18 19 -18 106 l0 100 35 0 c33 0 35 2 35 35 l0 35 -250 0
-250 0 0 -965 0 -965 -340 0 -340 0 1 848 0 847 101 83 c92 75 104 82 144 82
l44 0 0 -100 0 -100 35 0 35 0 0 100 0 100 35 0 c33 0 35 2 35 35 l0 35 -250
0 -250 0 0 -1000z m120 895 c-23 -19 -44 -35 -46 -35 -2 0 -4 16 -4 35 0 35 0
35 46 35 l46 0 -42 -35z m750 0 c-23 -19 -44 -35 -46 -35 -2 0 -4 16 -4 35 0
35 0 35 46 35 l46 0 -42 -35z m750 0 c-23 -19 -44 -35 -46 -35 -2 0 -4 16 -4
35 0 35 0 35 46 35 l46 0 -42 -35z m750 0 c-23 -19 -44 -35 -46 -35 -2 0 -4
16 -4 35 0 35 0 35 46 35 l46 0 -42 -35z m750 0 c-23 -19 -44 -35 -46 -35 -2
0 -4 16 -4 35 0 35 0 35 46 35 l46 0 -42 -35z m750 0 c-23 -19 -44 -35 -46
-35 -2 0 -4 16 -4 35 0 35 0 35 46 35 l46 0 -42 -35z m750 0 c-23 -19 -44 -35
-46 -35 -2 0 -4 16 -4 35 0 35 0 35 46 35 l46 0 -42 -35z m-3415 -249 c104
-44 96 -198 -13 -236 -115 -40 -215 84 -152 188 34 55 100 75 165 48z m750 0
c104 -44 96 -198 -13 -236 -115 -40 -215 84 -152 188 34 55 100 75 165 48z
m750 0 c104 -44 96 -198 -13 -236 -115 -40 -215 84 -152 188 34 55 100 75 165
48z m750 0 c104 -44 96 -198 -13 -236 -115 -40 -215 84 -152 188 34 55 100 75
165 48z m750 0 c104 -44 96 -198 -13 -236 -115 -40 -215 84 -152 188 34 55
100 75 165 48z m750 0 c104 -44 96 -198 -13 -236 -115 -40 -215 84 -152 188
34 55 100 75 165 48z"/>
</g>
</svg>
