<?xml version="1.0" standalone="no"?>
<!DOCTYPE svg PUBLIC "-//W3C//DTD SVG 20010904//EN"
 "http://www.w3.org/TR/2001/REC-SVG-20010904/DTD/svg10.dtd">
<svg version="1.0" xmlns="http://www.w3.org/2000/svg"
 width="612.000000pt" height="532.000000pt" viewBox="0 0 612.000000 532.000000"
 preserveAspectRatio="xMidYMid meet">

<g transform="translate(0.000000,532.000000) scale(0.100000,-0.100000)"
fill="#5b91d1" stroke="none">
<path d="M2935 5008 c-60 -5 -378 -11 -705 -12 l-595 -3 -5 -584 c-5 -521 -8
-602 -27 -754 -55 -427 -92 -1011 -93 -1448 l0 -239 -538 6 c-295 3 -562 7
-592 8 -50 3 -55 1 -58 -19 -2 -13 4 -26 16 -32 41 -22 270 -31 892 -35 461
-3 701 -9 840 -20 228 -18 422 -20 572 -6 125 12 158 22 158 49 0 33 -23 43
-71 31 -97 -22 -394 -23 -726 -1 -178 12 -346 21 -374 21 l-52 0 6 363 c8 473
38 916 90 1322 19 152 22 229 25 720 l3 550 450 -3 c275 -2 509 1 602 8 179
13 803 26 840 16 29 -7 35 -31 38 -151 l2 -80 -52 -7 c-68 -10 -163 -59 -196
-102 -78 -103 -110 -368 -57 -472 41 -80 110 -131 191 -143 l46 -6 -4 -195
c-3 -176 -6 -196 -22 -208 -24 -16 -24 -27 -1 -50 21 -21 23 11 -19 -361 -18
-157 -27 -209 -41 -226 -10 -13 -100 -91 -201 -173 -276 -227 -296 -245 -296
-269 -1 -31 35 -40 65 -17 13 11 90 75 171 144 238 201 280 232 303 225 56
-18 188 -135 316 -281 137 -156 162 -174 184 -134 9 17 -8 39 -124 172 -141
160 -194 210 -288 272 -52 35 -56 40 -48 64 9 27 33 229 51 417 14 151 17 164
42 170 12 2 72 11 132 20 172 25 338 73 349 101 9 23 -5 44 -28 44 -11 0 -57
-12 -100 -26 -44 -13 -134 -34 -200 -44 -67 -11 -133 -22 -148 -25 l-28 -4 1
132 c1 72 4 158 8 190 l6 58 50 17 c66 23 115 61 172 136 73 96 96 156 100
261 4 84 3 93 -22 130 -15 22 -44 53 -65 69 -24 18 -40 39 -42 54 -3 26 -10
30 -94 52 l-42 10 -1 92 c-2 146 -20 191 -79 207 -44 13 -527 12 -687 -1z
m798 -394 c12 -14 39 -34 59 -45 20 -10 53 -36 73 -56 37 -38 37 -38 33 -113
-4 -93 -44 -182 -116 -258 -67 -72 -126 -96 -211 -87 -77 8 -104 20 -149 67
-51 54 -64 130 -43 259 24 143 50 190 131 230 45 23 69 28 128 29 66 0 74 -2
95 -26z"/>
<path d="M5563 1338 c-15 -18 -31 -121 -43 -278 -10 -125 -15 -164 -26 -198
-3 -12 -45 32 -178 191 -74 89 -131 110 -163 60 -14 -22 -19 -54 -22 -170 -3
-153 2 -177 43 -171 29 4 39 62 31 180 -3 56 -2 99 4 102 9 6 27 -12 156 -167
93 -111 113 -125 150 -109 35 16 53 64 64 174 6 51 16 143 22 203 19 167 18
189 -7 193 -11 2 -25 -3 -31 -10z"/>
<path d="M797 1303 c-8 -13 -27 -153 -30 -213 -2 -65 -7 -68 -144 -69 l-93 -1
0 58 c0 31 5 87 10 124 12 81 6 100 -28 96 -22 -2 -28 -10 -34 -43 -8 -38 -29
-245 -27 -275 0 -8 2 -71 4 -140 5 -141 7 -150 34 -150 32 0 41 32 41 149 l0
111 84 0 c46 0 97 3 115 6 l31 6 -7 -93 c-5 -79 -3 -96 10 -107 9 -8 24 -12
34 -10 16 3 20 27 34 236 9 127 20 244 23 258 10 39 -2 64 -29 64 -13 0 -26
-3 -28 -7z"/>
<path d="M2371 1217 c-6 -8 -15 -97 -22 -213 -5 -109 -12 -200 -14 -203 -3 -2
-15 9 -27 25 -64 82 -143 167 -163 176 -20 9 -23 17 -22 52 2 37 0 41 -22 41
-24 0 -48 -31 -81 -104 -16 -35 -24 -170 -13 -211 7 -27 15 -36 35 -38 32 -4
37 8 44 107 8 104 10 108 36 85 11 -11 59 -65 105 -121 72 -87 89 -103 114
-103 30 0 52 24 63 71 3 14 10 114 16 224 10 201 7 225 -25 225 -7 0 -18 -6
-24 -13z"/>
<path d="M1470 1211 c-8 -5 -39 -59 -69 -120 -41 -81 -60 -111 -75 -113 -17
-2 -21 -11 -22 -43 -1 -22 -13 -66 -28 -98 -29 -65 -33 -102 -11 -111 29 -11
44 6 76 85 17 44 38 87 46 95 10 10 39 14 103 14 l88 0 22 -67 c25 -78 57
-143 69 -143 23 0 41 14 41 30 0 10 -11 47 -25 83 -13 36 -33 102 -45 147 -26
102 -73 203 -107 230 -28 22 -40 24 -63 11z m90 -208 c0 -9 -19 -13 -65 -13
l-65 0 37 73 36 72 28 -60 c15 -33 28 -66 29 -72z"/>
<path d="M3622 1168 c-13 -16 -46 -130 -67 -233 -9 -44 -24 -104 -33 -134 -16
-51 -15 -54 2 -67 43 -31 59 4 116 259 12 54 25 96 28 92 4 -4 23 -37 42 -73
53 -102 91 -96 153 23 l32 60 6 -85 c4 -47 7 -138 8 -202 1 -105 3 -118 20
-128 15 -7 23 -6 35 6 31 30 14 438 -19 474 -38 42 -89 12 -135 -78 -12 -23
-25 -44 -29 -47 -5 -2 -19 19 -32 47 -35 75 -56 98 -89 98 -15 0 -32 -6 -38
-12z"/>
<path d="M4472 1172 c-20 -6 -86 -151 -143 -311 -10 -30 -33 -76 -49 -101 -30
-47 -32 -73 -5 -84 30 -11 69 38 114 145 18 44 22 46 66 53 94 12 92 13 115
-61 38 -124 101 -188 130 -133 9 17 6 28 -19 63 -20 27 -41 82 -61 157 -17 63
-38 138 -46 166 -21 77 -62 120 -102 106z m44 -157 c8 -31 14 -58 12 -60 -9
-7 -88 -12 -88 -5 0 15 53 131 57 126 2 -2 11 -30 19 -61z"/>
<path d="M752 609 c-139 -4 -264 -10 -277 -13 -25 -6 -37 -28 -28 -51 5 -14
35 -15 247 -10 268 6 355 12 375 24 9 6 11 18 7 35 -5 22 -12 26 -39 24 -17 0
-146 -5 -285 -9z"/>
<path d="M1278 593 c-5 -7 -7 -21 -4 -31 9 -27 58 -32 301 -32 171 0 204 2
209 15 8 23 -4 45 -28 50 -11 2 -121 6 -244 7 -166 2 -226 0 -234 -9z"/>
<path d="M3130 589 c-299 -23 -371 -32 -380 -49 -6 -11 -5 -23 3 -35 13 -16
24 -16 223 0 261 20 288 25 292 49 8 39 -16 45 -138 35z"/>
<path d="M3576 588 c-25 -14 -19 -47 10 -58 33 -13 225 -30 340 -30 71 0 94 3
105 16 9 11 10 20 2 32 -8 14 -37 18 -169 24 -88 4 -185 11 -216 16 -33 5 -63
5 -72 0z"/>
<path d="M2009 554 c-9 -11 -10 -20 -2 -32 9 -15 36 -17 204 -20 230 -3 241
-1 237 36 l-3 27 -211 3 c-184 2 -213 0 -225 -14z"/>
<path d="M4259 554 c-9 -11 -10 -20 -2 -32 9 -15 36 -17 233 -17 194 0 224 2
233 16 6 9 7 24 4 33 -6 14 -32 16 -230 16 -193 0 -226 -2 -238 -16z"/>
<path d="M5145 559 c-102 -11 -127 -22 -123 -52 3 -20 8 -22 58 -20 557 17
540 15 525 63 -6 19 -13 20 -193 19 -103 -1 -223 -6 -267 -10z"/>
</g>
</svg>
