<?xml version="1.0" standalone="no"?>
<!DOCTYPE svg PUBLIC "-//W3C//DTD SVG 20010904//EN"
 "http://www.w3.org/TR/2001/REC-SVG-20010904/DTD/svg10.dtd">
<svg version="1.0" xmlns="http://www.w3.org/2000/svg"
 width="512.000000pt" height="512.000000pt" viewBox="0 0 512.000000 512.000000"
 preserveAspectRatio="xMidYMid meet">

<g transform="translate(0.000000,512.000000) scale(0.100000,-0.100000)"
fill="#de4492" stroke="none">
<path d="M736 4744 c-346 -84 -489 -491 -266 -760 156 -189 455 -236 659 -104
169 109 254 289 223 473 -47 280 -331 460 -616 391z m267 -209 c63 -31 104
-72 139 -138 17 -32 23 -59 23 -117 0 -65 -4 -82 -30 -128 -56 -102 -152 -156
-275 -156 -122 0 -220 55 -274 153 -135 250 152 516 417 386z"/>
<path d="M1629 4731 l-29 -29 0 -606 0 -606 -591 0 -591 0 -29 -29 c-45 -46
-32 -123 26 -149 19 -9 177 -12 605 -12 l580 0 0 -755 0 -755 -591 0 -591 0
-29 -29 c-45 -46 -32 -123 26 -149 19 -9 177 -12 605 -12 l580 0 2 -595 3
-594 23 -23 c32 -32 102 -32 134 0 l23 23 3 594 2 595 755 0 755 0 2 -595 3
-594 23 -23 c32 -32 102 -32 134 0 l23 23 3 594 2 595 596 0 c652 0 639 -1
664 59 16 39 5 86 -27 111 -25 20 -40 20 -629 20 l-604 0 0 755 0 755 585 0
c636 0 628 -1 653 55 19 42 14 74 -17 106 l-29 29 -596 0 -596 0 0 606 0 606
-29 29 c-41 40 -91 40 -132 0 l-29 -29 0 -606 0 -606 -755 0 -755 0 0 606 0
606 -29 29 c-22 21 -39 29 -66 29 -27 0 -44 -8 -66 -29z m1671 -2186 l0 -755
-755 0 -755 0 0 755 0 755 755 0 755 0 0 -755z"/>
<path d="M2240 2943 c-50 -18 -81 -83 -60 -125 7 -13 64 -76 128 -140 l117
-118 -117 -117 c-70 -71 -120 -129 -124 -146 -15 -63 46 -126 110 -113 22 5
65 40 149 124 l117 117 118 -117 c64 -64 130 -122 145 -127 66 -25 141 50 116
116 -5 15 -63 81 -127 146 l-117 117 117 118 c84 83 119 126 124 148 13 64
-50 125 -113 110 -17 -4 -75 -54 -145 -124 l-118 -117 -117 117 c-138 136
-157 148 -203 131z"/>
<path d="M2436 4744 c-346 -84 -489 -491 -266 -760 156 -189 455 -236 659
-104 169 109 254 289 223 473 -47 280 -331 460 -616 391z m267 -209 c63 -31
104 -72 139 -138 17 -32 23 -59 23 -117 0 -65 -4 -82 -30 -128 -56 -102 -152
-156 -275 -156 -122 0 -220 55 -274 153 -135 250 152 516 417 386z"/>
<path d="M3915 4661 c-25 -11 -51 -40 -59 -67 -12 -39 14 -78 132 -196 l117
-118 -112 -112 c-61 -62 -116 -123 -123 -136 -34 -67 55 -156 122 -122 12 7
74 62 135 123 l113 111 123 -122 c114 -112 127 -122 161 -122 21 0 46 5 57 10
28 16 52 68 44 98 -4 15 -60 81 -128 150 l-121 122 118 119 c104 104 118 123
123 159 5 36 2 45 -25 72 -23 23 -40 30 -68 30 -34 0 -47 -10 -161 -122 l-123
-122 -123 122 c-125 124 -155 143 -202 123z"/>
<path d="M4145 3030 c-113 -23 -236 -95 -299 -176 -205 -262 -91 -634 228
-744 321 -110 666 123 666 450 0 296 -296 530 -595 470z m185 -196 c76 -21
146 -76 184 -144 27 -48 31 -65 31 -130 0 -64 -4 -83 -30 -128 -35 -63 -71
-97 -142 -129 -220 -101 -473 72 -439 301 10 64 63 145 120 184 90 60 176 74
276 46z"/>
<path d="M2465 1310 c-267 -58 -439 -292 -397 -542 47 -280 327 -460 611 -393
248 59 414 297 373 537 -31 177 -152 317 -328 378 -66 23 -198 34 -259 20z
m229 -213 c70 -32 107 -66 141 -129 26 -45 30 -64 30 -128 0 -65 -4 -82 -31
-130 -52 -93 -168 -160 -274 -160 -191 0 -347 185 -301 357 27 98 121 187 225
212 59 14 152 4 210 -22z"/>
<path d="M540 1223 c-50 -18 -81 -83 -60 -125 7 -13 64 -76 128 -140 l117
-118 -112 -112 c-61 -62 -116 -124 -123 -137 -29 -58 20 -131 88 -131 32 0 48
12 159 122 l123 122 125 -124 c118 -117 127 -125 164 -125 68 0 113 61 91 122
-6 15 -64 81 -128 146 l-117 117 117 118 c84 83 119 126 124 148 13 64 -50
125 -113 109 -16 -4 -77 -55 -146 -123 l-117 -116 -118 116 c-125 125 -159
147 -202 131z"/>
</g>
</svg>
